<?xml version="1.0" encoding="utf-8"?>
<!-- Generator: Adobe Illustrator 19.2.1, SVG Export Plug-In . SVG Version: 6.00 Build 0)  -->
<svg version="1.1" id="layer" xmlns="http://www.w3.org/2000/svg" xmlns:xlink="http://www.w3.org/1999/xlink" x="0px" y="0px"
	 viewBox="0 0 652 652" style="enable-background:new 0 0 652 652;" xml:space="preserve">
<style type="text/css">
	.st0{fill:#1E1E1C;}
	.st1{fill:#0567A5;}
</style>
<path class="st0" d="M190.8,349c0,3.5-2.5,6-6,6s-6-2.5-6-6c0-3.5,2.5-6,6-6C187.8,343,190.8,345.5,190.8,349"/>
<path class="st0" d="M142.2,349c0,3.5-2.5,6-6,6c-3,0-6-2.5-6-6c0-3.5,2.5-6,6-6S142.2,345.5,142.2,349"/>
<path class="st0" d="M160.7,292.3c31.6,0,57.6,25.1,57.6,56.1s-26.1,56.1-57.6,56.1s-57.6-25.1-57.6-56.1
	C103.1,317.4,128.6,292.3,160.7,292.3 M160.7,285.3c-35.6,0-64.2,28.1-64.2,62.7s29.1,62.7,64.2,62.7c35.6,0,64.2-28.1,64.2-62.7
	S196.3,285.3,160.7,285.3"/>
<path class="st0" d="M160.7,389.1c-14,0-24.1-7.5-24.6-8c-1.5-1-2-3-0.5-4.5c1-1.5,3-2,4.5-0.5c0,0,9,6.5,20.1,6.5
	s19.5-6.5,19.5-6.5c1.5-1,3.5-1,4.5,0.5c1,1.5,1,3.5-0.5,4.5C183.8,381.6,173.7,389.1,160.7,389.1"/>
<path class="st0" d="M264.5,396.6v-62.2h7v62.7c0,1.5,0.5,2.5,2.5,3h31.1v6.5h-30.6C268.5,406.1,264.5,402.6,264.5,396.6"/>
<path class="st0" d="M331.1,401.1c6.5,0,12-2,17-5.5l3,5c-5.5,4.5-12,6.5-20.6,6.5c-16,0-25.1-11-25.1-25.6s10-25.6,23.6-25.6
	c13,0,22.1,9,22.6,22.1c0,0,0.5,4,0.5,4.5h-40.1C313.1,393.6,319.6,401.1,331.1,401.1 M312.6,377h32.6c-1-9-6.5-15.5-16-15.5
	C320.6,361.5,314.1,368.5,312.6,377"/>
<path class="st0" d="M360.2,344h6.5v13h16.5v6h-16.5v27.6c0,6,3,10,9.5,10c3.5,0,7-1,10.5-2v5.5c-3.5,1.5-7.5,2-11.5,2
	c-9.5,0-15-6-15-15.5V344z"/>
<path class="st0" d="M390.3,352.5l-2-0.5c2-4,3.5-6.5,3.5-10c-3-0.5-4-2.5-4-4.5c0-3.5,2-5,4.5-5c3.5,0,5,2.5,5,5.5
	C396.8,343,393.3,349,390.3,352.5"/>
<path class="st0" d="M420.8,378c9,2.5,17.5,6.5,17.5,16c0,7.5-4,13.5-20.6,13.5c-8.5,0-16-2-19-9l5.5-3c2.5,4.5,6.5,6,14,6
	c10.5,0,13.5-3,13.5-7.5c0-5.5-5.5-8-13-10.5c-11.5-3-18-7-18-15.5c0-8.5,7-12.5,18-12.5c6,0,14,0.5,18,8l-5.5,2.5
	c-2.5-4.5-7.5-5.5-13-5.5c-5,0-11,1.5-11,6.5C407.8,372,409.3,375,420.8,378"/>
<polygon class="st0" points="481,406.1 474,406.1 474,340.4 452.9,340.4 452.9,334.4 502.1,334.4 502.1,340.4 481,340.4 "/>
<path class="st0" d="M544.2,357v49.1h-6v-0.5c-0.5-2-2-2-3.5-1.5c-2,0.5-4,1.5-6.5,2c-2,0.5-4.5,1-7,1c-15,0-24.6-9.5-24.6-24.6
	c0-14.5,9.5-26.6,25.1-26.6c7,0,12.5,2.5,16,6.5v-5h6.5V357z M522.1,361.5c-12.5,0-18.5,9.5-18.5,20.6c0,11,6.5,19,18.5,19
	c6,0,11.5-2,15.5-4.5V377C537.6,367.5,530.6,361.5,522.1,361.5"/>
<rect x="558.2" y="333.4" class="st0" width="6.5" height="72.7"/>
<path class="st0" d="M601.8,387.1c-2.5-4-3.5-5-7.5-5h-9v24.1h-6.5v-72.7h6.5v43.1h4.5c8.5,0,12.5-0.5,17-11l4-8.5h7l-6,12.5
	c-2,4.5-4.5,7.5-8,9.5l17,27.1h-8L601.8,387.1z"/>
<path class="st1" d="M376.2,231.7h15v85.7h-15v-22.6h-39.6c0.5,6,5,12.5,15,12.5c5,0,10-1.5,13.5-4.5l7,8.5c-5,4.5-12,7.5-22.6,7.5
	c-8,0-16.5-2.5-22.1-8.5c-2.5-3-5-7-6-12c-3,11-13,18.5-27.6,19c-4.5,0-9.5,0-14.5,0c-5.5,0-11.5,0-17,0v-86.2h20.1
	c10,0,18.5,1,24.6,6c4,3.5,6.5,9,6.5,15c0,6.5-3,12-8,16c7,2,14,7.5,16.5,15.5c3-11,12.5-21.6,27.6-21.6c10,0,17.5,4,22.1,10
	c2,3,3.5,6,4.5,10C376.2,282.3,376.2,231.7,376.2,231.7z M277.5,265.8h5c2.5,0,4.5,0,6-0.5c8-1.5,9.5-7.5,9.5-11c0-4.5-2-8-6.5-9.5
	c-2.5-1-5.5-1.5-9.5-1.5h-4v22.6H277.5z M306.6,290.8c0-6.5-4-11.5-10.5-13c-2-0.5-5.5-1-8.5-1H278v28.1h11c2,0,4,0,6-0.5
	C303.1,303.4,306.6,297.8,306.6,290.8 M362.2,283.8c-1-6.5-5.5-11-12.5-11s-11.5,4.5-13,11H362.2z"/>
<rect x="400.8" y="231.7" class="st1" width="14.5" height="85.7"/>
<path class="st1" d="M43.4,378c-1.5,0-3-0.5-4-1.5c-2-1.5-3-4.5-2-7l15.5-37.6h-19c-7,0-13-5.5-13-13v-72.7c0-7,5.5-13,13-13h116.3
	c7,0,13,5.5,13,13v72.7c0,7-6,13-13,13h-35.1L46.9,377C45.9,377.5,44.4,378,43.4,378 M33.9,245.7C33.4,245.7,33.4,245.7,33.9,245.7
	l-0.5,73.2c0,0,0,0.5,0.5,0.5h28.6c2,0,4,1,5,2.5c1,1.5,1.5,4,0.5,6l-11,27.6l52.6-35.1c1-0.5,2-1,3.5-1h36.6c0,0,0.5,0,0.5-0.5
	v-72.7c0,0,0-0.5-0.5-0.5H33.9z"/>
</svg>
