<?xml version="1.0" encoding="utf-8"?>
<!-- Generator: Adobe Illustrator 19.2.1, SVG Export Plug-In . SVG Version: 6.00 Build 0)  -->
<svg version="1.1" id="layer" xmlns="http://www.w3.org/2000/svg" xmlns:xlink="http://www.w3.org/1999/xlink" x="0px" y="0px"
	 viewBox="0 0 652 652" style="enable-background:new 0 0 652 652;" xml:space="preserve">
<style type="text/css">
	.st0{fill:#08287E;}
	.st1{fill:#E50012;}
</style>
<path class="st0" d="M210.8,328.6c7,0,12-2.9,12-8.4c0-5.6-4.1-8.7-10.8-8.7h-7v17.2H210.8z M245.2,364.4c0,0-2.6,0.9-8.5,0.9
	c-22.4,0-14.9-23.7-28.5-23.7H205v23.1h-17.4v-67.1h25.1c18,0,27.1,6.1,27.1,22c0,10-6.7,15-10.4,17c5.4,6.4,5,14.4,12.8,14.4h3
	V364.4z M278.6,350.9c5.7,0,8.2-2,8.2-7.3c0-5.3-3.6-7.4-8.7-7.4h-8.4v14.7H278.6z M276.5,324.2c5.7,0,8-2.3,8-6.5
	c0-4.1-3-6.3-9.2-6.3h-5.6v12.8H276.5z M300.9,332.8c3.3,2.6,6,6.7,6,12.7c0,14.2-10.5,19.2-22.8,19.2h-31.8v-67.1h28.4
	c13.7,0,21.8,5.1,21.8,18.1c0,11.5-7.2,13.2-10.8,13.2v0.2C293.8,329.1,297.7,330.2,300.9,332.8 M315.2,364.7v-67.1h17.4v53.3h26.9
	v13.8H315.2z"/>
<path class="st1" d="M401.3,354.9c6.9,0,12.8-2.2,12.8-10.2c0-7.5-5.6-10.3-12.9-10.3h-12.7v20.4H401.3z M400.1,325.9
	c7.6,0,10.1-3.7,10.1-9.3c0-5.7-3.7-9.2-12-9.2h-9.8v18.5H400.1z M376.4,364.7v-67.1h24.5c13.7,0,21.7,5.3,21.7,17.6
	c0,12.1-7.1,14.1-10.4,14.1v0.2c4.4,0,14.9,3.7,14.9,16.6c0,13.9-11.1,18.6-23.6,18.6H376.4z M452.5,338.1h18.1l-9.1-25.7
	L452.5,338.1z M473.8,347.4h-24.5l-5.9,17.2h-12.6l24.7-67.1h12.2l24.7,67.1h-12.6L473.8,347.4z M539.3,364.7L513,319.5v45.1h-12.1
	v-67.1h12.7l26.5,46.6v-46.6h12v67.1H539.3z M624.7,355.6v9c0,0-2.5,0.6-6.4,0.6c-19.6,0-15-28.1-29.1-28.1h-0.8l-7.5,8.8v3v15.8
	h-12.1v-15.8v-17.4v-33.9h12.1v29.7v0.1l25.7-29.9H622l-25.7,30.2c5.6,1.5,8.9,5.5,9.6,6.2c7.1,7.2,7.3,21.7,16,21.7H624.7z"/>
<path class="st0" d="M58.2,246.1c-19.1,11-31.9,31.6-31.9,55.2v-95.7h31.9V246.1 M94.1,237.6v32c15.7,2,27.9,15.4,27.9,31.6
	c0,17.6-14.3,31.9-31.9,31.9c-17.6,0-31.9-14.3-31.9-31.9h0v55.3c9.4,5.4,20.3,8.5,31.9,8.5c35.2,0,63.8-28.6,63.8-63.8
	C153.9,267.4,127.5,239.7,94.1,237.6"/>
<path class="st1" d="M58.2,246.1c-19.1,11-31.9,31.6-31.9,55.2v58.9V373h31.9v-8.4v-8.1v-55.3h0c0-16.3,12.2-29.7,27.9-31.6v-32
	C76,238.3,66.5,241.3,58.2,246.1"/>
<path class="st0" d="M334,419.2c0.1-0.7-0.2-4.4-4.3-4.4c-3.1,0-6.2,2.5-7.5,7.6c-1.3,5.2,0.8,7.5,3.7,7.5c4.6,0,6.6-4.9,6.6-4.7
	L334,419.2z M337.6,434.1c0,0-0.9,0.2-2.4,0.2c-2.7,0-4-1.4-3.4-3.8l0.1-0.2c-0.5,0.7-3.1,4.2-8.5,4.2c-4.7,0-8.5-3.6-6.4-12
	c2.2-8.8,7.6-12.2,12.7-12.2c4.4,0,5.9,2.7,6.3,3.2l0.7-2.9h4.7l-4.4,17.4c-0.4,1.4-0.1,2.3,1.4,2.3L337.6,434.1z M353,425.4
	c-0.2,0.8,0.1,4.5,4.2,4.5c3.3,0,6.3-2.5,7.6-7.6c1.4-5.4-1-7.5-3.9-7.5c-4.4,0-6.5,4.7-6.5,4.7L353,425.4z M342.5,446.2l7.4-29.5
	c0.3-1.4,0.1-2.2-1.5-2.2l1-3.9c0,0,0.9-0.2,2.4-0.2c2.5,0,4,1.4,3.4,3.7l-0.1,0.3c0.7-0.9,3.2-4.1,8.4-4.1c4.8,0,8.6,3.5,6.5,12
	c-2.2,8.8-7.8,12.3-12.9,12.3c-4.7,0-5.7-3-5.7-3l-3.7,14.7H342.5z M397.4,434.1c0,0-0.9,0.2-2.4,0.2c-3.1,0-4.5-1.8-3.5-5.7
	l2.2-8.8c0.7-3-0.2-5.1-3.3-5.1c-3.5,0-5.9,3.4-6.5,5.9l-3.4,13.5h-5.3l4.4-17.5c0.3-1.4,0.1-2.2-1.5-2.2l1-3.9c0,0,0.9-0.2,2.4-0.2
	c2.4,0,3.9,1.5,3.3,3.7l-0.2,0.7c1.3-2.3,4-4.6,8.4-4.6c6,0,7.4,4.2,6.1,9.3L397,428c-0.4,1.4-0.1,2.3,1.4,2.3L397.4,434.1z
	 M422.2,422.4c1.2-5-0.2-7.6-3.7-7.6c-3.4,0-6.1,2.6-7.4,7.6c-1.2,5,0.1,7.6,3.6,7.6C418.3,429.9,421,427.3,422.2,422.4
	 M405.9,422.4c1.9-7.5,7.1-12.1,13.7-12.1c6.7,0,9.6,4.7,7.8,12.1c-1.9,7.4-7.1,12.1-13.8,12.1C406.9,434.5,404.1,429.8,405.9,422.4
	 M465.8,434c0,0-1,0.4-2.3,0.4c-8.1,0-2.4-11.1-9.7-11.1H451l-2.7,10.9H443l8.9-35.7h5.3l-5.2,20.8h3.1c3.9,0,7.6-3.2,9-8.8h5
	c-1.1,4.3-3.7,8.9-8.8,10.5c4.2,2.2,1.1,9.2,6.1,9.2h0.5L465.8,434z M490.3,419.2c0.1-0.7-0.2-4.4-4.3-4.4c-3.1,0-6.2,2.5-7.5,7.6
	c-1.3,5.2,0.8,7.5,3.7,7.5c4.6,0,6.6-4.9,6.6-4.7L490.3,419.2z M493.9,434.1c0,0-0.9,0.2-2.4,0.2c-2.7,0-4-1.4-3.4-3.8l0.1-0.2
	c-0.5,0.7-3.1,4.2-8.5,4.2c-4.7,0-8.5-3.6-6.4-12c2.2-8.8,7.6-12.2,12.7-12.2c4.4,0,5.9,2.7,6.3,3.2l0.7-2.9h4.7l-4.4,17.4
	c-0.4,1.4-0.1,2.3,1.4,2.3L493.9,434.1z M519.7,425.3c-0.2,0.8,0,4.7,4.2,4.7c3.2,0,6.3-2.5,7.6-7.6c1.4-5.5-1-7.5-3.8-7.5
	c-4.4,0-6.5,4.7-6.5,4.7L519.7,425.3z M512.2,434.2l8.9-35.7h5.3l-3.8,15.2c0.1-0.1,2.6-3.5,7.7-3.5c4.8,0,8.6,3.5,6.5,12
	c-2.2,8.8-7.7,12.3-12.9,12.3c-4.5,0-5.8-2.9-6.3-3.4l-0.8,3.1H512.2z M560,419.2c0.1-0.7-0.2-4.4-4.3-4.4c-3.1,0-6.2,2.5-7.5,7.6
	c-1.3,5.2,0.8,7.5,3.7,7.5c4.6,0,6.6-4.9,6.6-4.7L560,419.2z M563.5,434.1c0,0-0.9,0.2-2.4,0.2c-2.7,0-4-1.4-3.4-3.8l0.1-0.2
	c-0.5,0.7-3.1,4.2-8.5,4.2c-4.7,0-8.5-3.6-6.4-12c2.2-8.8,7.6-12.2,12.7-12.2c4.4,0,5.9,2.7,6.3,3.2l0.7-2.9h4.7l-4.4,17.4
	c-0.4,1.4-0.1,2.3,1.4,2.3L563.5,434.1z M593.7,434.1c0,0-0.9,0.2-2.4,0.2c-3.1,0-4.5-1.8-3.5-5.7l2.2-8.8c0.7-3-0.2-5.1-3.3-5.1
	c-3.5,0-5.9,3.4-6.5,5.9l-3.4,13.5h-5.3l4.4-17.5c0.3-1.4,0.1-2.2-1.5-2.2l1-3.9c0,0,0.9-0.2,2.4-0.2c2.4,0,3.9,1.5,3.3,3.7
	l-0.2,0.7c1.3-2.3,4-4.6,8.4-4.6c6,0,7.4,4.2,6.1,9.3l-2.1,8.4c-0.4,1.4-0.1,2.3,1.4,2.3L593.7,434.1z M623.2,434c0,0-1,0.4-2.3,0.4
	c-8.1,0-2.4-11.1-9.7-11.1h-2.8l-2.7,10.9h-5.3l8.9-35.7h5.3l-5.2,20.8h3c3.9,0,7.6-3.2,9-8.8h5c-1.1,4.3-3.7,8.9-8.8,10.5
	c4.2,2.2,1.1,9.2,6.1,9.2h0.5L623.2,434z"/>
</svg>
